<svg xmlns="http://www.w3.org/2000/svg" width="430" height="430" style="width:100%;height:100%;transform:translate3d(0,0,0);content-visibility:visible" viewBox="0 0 430 430"><defs><clipPath id="a"><path d="M0 0h430v430H0z"/></clipPath><clipPath id="d"><path d="M0 0h430v430H0z"/></clipPath><clipPath id="c"><path d="M0 0h430v430H0z"/></clipPath><clipPath id="b"><path d="M0 0h430v430H0z"/></clipPath></defs><g fill="none" clip-path="url(#a)"><g clip-path="url(#b)" style="display:none"><path class="secondary" style="display:none"/><path class="secondary" style="display:none"/><path class="primary" style="display:none"/><path class="primary" style="display:none"/></g><g clip-path="url(#c)" style="display:block"><path stroke="#FFF" stroke-linecap="round" stroke-linejoin="round" stroke-width="12" d="M-49.562 27.671-.876 50M27.933-50 49.562-.701m-61.909-11.733L23.818 23.73" class="secondary" style="display:block" transform="translate(99.562 100)"/><path stroke="#FFF" stroke-linecap="round" stroke-linejoin="round" stroke-width="12" d="M-49.562 27.671-.876 50M27.933-50 49.562-.701m-61.909-11.733L23.818 23.73" class="secondary" style="display:block" transform="rotate(180 167.781 168)"/><path class="secondary" style="display:none"/><path class="secondary" style="display:none"/><path stroke="#FFF" stroke-linecap="round" stroke-linejoin="round" stroke-width="12" d="m-79.525-32.925-53.938 54.033c-29.733 29.733-28.78 79.001 2.096 109.877l.286.286c30.971 30.876 80.144 31.734 109.877 1.906l53.843-54.033M79.62 32.925l53.843-54.033c29.733-29.733 28.78-79.001-2.096-109.877l-.286-.286c-30.971-30.876-80.144-31.734-109.877-1.906l-53.843 54.033" class="primary" style="display:block" transform="translate(215.158 215)"/><path stroke="#FFF" stroke-linecap="round" stroke-linejoin="round" stroke-width="12" d="M-55 55 55-55" class="primary" style="display:block" transform="translate(215 215)"/></g><g clip-path="url(#d)" style="display:none"><path class="secondary" style="display:none"/><path class="secondary" style="display:none"/><path class="primary" style="display:none"/><path class="primary" style="display:none"/><path class="primary" style="display:none"/></g></g></svg>