<svg xmlns="http://www.w3.org/2000/svg" width="500" height="500" style="width:100%;height:100%;transform:translate3d(0,0,0);content-visibility:visible" viewBox="0 0 500 500"><defs><clipPath id="a"><path d="M0 0h500v500H0z"/></clipPath><clipPath id="c"><path d="M0 0h500v500H0z"/></clipPath><clipPath id="b"><path d="M0 0h500v500H0z"/></clipPath></defs><g clip-path="url(#a)"><g clip-path="url(#b)" style="display:block"><g class="primary design" style="display:none"><path fill="#9BA0A6" d="M359.35 270.832c-46.035 0-83.32 37.286-83.32 83.32 0 46.034 37.285 83.32 83.32 83.32 46.034 0 83.32-37.286 83.32-83.32 0-46.034-37.286-83.32-83.32-83.32zm0 135.395c-28.746 0-52.075-23.33-52.075-52.075 0-28.745 23.33-52.075 52.075-52.075 28.745 0 52.075 23.33 52.075 52.075 0 28.745-23.33 52.075-52.075 52.075zm-41.66-187.47h83.32c19.996 0 36.452-16.456 36.452-36.453v-83.32c0-19.996-16.456-36.452-36.452-36.452h-83.32c-19.997 0-36.453 16.456-36.453 36.452v83.32c0 19.997 16.456 36.453 36.453 36.453zm-5.208-119.773c0-2.916 2.291-5.207 5.208-5.207h83.32c2.916 0 5.207 2.291 5.207 5.207v83.32c0 2.917-2.291 5.208-5.207 5.208h-83.32c-2.917 0-5.208-2.291-5.208-5.208v-83.32zM164.59 70.468c-5.625-9.582-21.456-9.582-27.08 0l-72.07 124.98c-2.917 4.791-2.917 10.603 0 15.394 2.916 4.79 7.915 7.915 13.539 7.915H223.33c5.624 0 10.832-2.916 13.54-7.915 2.707-5 2.707-10.832 0-15.623L164.59 70.47zm-58.741 117.044 45.2-78.112 45.202 78.112h-90.402zM222.08 285.83c-6.04-6.041-16.04-6.041-22.08 0l-48.742 48.742-48.742-48.742c-6.041-6.041-16.04-6.041-22.08 0-6.04 6.04-6.04 16.039 0 22.08l48.742 48.742-48.742 48.742c-6.04 6.04-6.04 16.039 0 22.08 3.124 3.124 7.082 4.582 11.04 4.582 3.957 0 7.915-1.458 11.04-4.582l48.742-48.743L200 427.474c3.125 3.124 7.082 4.582 11.04 4.582 3.958 0 7.915-1.458 11.04-4.582 6.04-6.041 6.04-16.04 0-22.08l-48.742-48.742 48.742-48.743c6.04-6.04 6.04-16.039 0-22.08z" class="primary"/></g><g class="primary design" style="display:block"><path fill="#9BA0A6" d="M359.35 270.832c-46.035 0-83.32 37.286-83.32 83.32 0 46.034 37.285 83.32 83.32 83.32 46.034 0 83.32-37.286 83.32-83.32 0-46.034-37.286-83.32-83.32-83.32zm0 135.395c-28.746 0-52.075-23.33-52.075-52.075 0-28.745 23.33-52.075 52.075-52.075 28.745 0 52.075 23.33 52.075 52.075 0 28.745-23.33 52.075-52.075 52.075zm-41.66-187.47h83.32c19.996 0 36.452-16.456 36.452-36.453v-83.32c0-19.996-16.456-36.452-36.452-36.452h-83.32c-19.997 0-36.453 16.456-36.453 36.452v83.32c0 19.997 16.456 36.453 36.453 36.453zm-5.208-119.773c0-2.916 2.291-5.207 5.208-5.207h83.32c2.916 0 5.207 2.291 5.207 5.207v83.32c0 2.917-2.291 5.208-5.207 5.208h-83.32c-2.917 0-5.208-2.291-5.208-5.208v-83.32zM164.59 70.468c-5.625-9.582-21.456-9.582-27.08 0l-72.07 124.98c-2.917 4.791-2.917 10.603 0 15.394 2.916 4.79 7.915 7.915 13.539 7.915H223.33c5.624 0 10.832-2.916 13.54-7.915 2.707-5 2.707-10.832 0-15.623L164.59 70.47zm-58.741 117.044 45.2-78.112 45.202 78.112h-90.402zM222.08 285.83c-6.04-6.041-16.04-6.041-22.08 0l-48.742 48.742-48.742-48.742c-6.041-6.041-16.04-6.041-22.08 0-6.04 6.04-6.04 16.039 0 22.08l48.742 48.742-48.742 48.742c-6.04 6.04-6.04 16.039 0 22.08 3.124 3.124 7.082 4.582 11.04 4.582 3.957 0 7.915-1.458 11.04-4.582l48.742-48.743L200 427.474c3.125 3.124 7.082 4.582 11.04 4.582 3.958 0 7.915-1.458 11.04-4.582 6.04-6.041 6.04-16.04 0-22.08l-48.742-48.742 48.742-48.743c6.04-6.04 6.04-16.039 0-22.08z" class="primary"/></g><g class="primary design" style="display:none"><path fill="none" class="primary"/></g><g class="primary design" style="display:none"><path fill="none" class="primary"/></g><g class="primary design" style="display:none"><path fill="none" class="primary"/></g><g fill="none" class="primary design" style="display:none"><path class="primary"/><path class="primary"/></g></g><g clip-path="url(#c)" style="display:none"><g class="primary design" style="display:none"><path class="primary"/><path class="primary"/><path class="primary"/><path class="primary"/></g><g class="primary design" style="display:none"><path fill="none" class="primary"/></g><g fill="none" class="primary design" style="display:none"><path class="primary"/><path class="primary"/></g><g class="primary design" style="display:none"><path fill="none" class="primary"/></g><g class="primary design" style="display:none"><path fill="none" class="primary"/></g></g></g></svg>